
<svg id="visual" viewBox="0 0 960 540" width="960" height="540" xmlns="http://www.w3.org/2000/svg" xmlns:xlink="http://www.w3.org/1999/xlink" version="1.1"><rect x="0" y="0" width="960" height="540" fill="#ffffff"></rect><path d="M0 317L22.8 319.5C45.7 322 91.3 327 137 319.2C182.7 311.3 228.3 290.7 274 283.7C319.7 276.7 365.3 283.3 411.2 300.5C457 317.7 503 345.3 548.8 351.5C594.7 357.7 640.3 342.3 686 341.3C731.7 340.3 777.3 353.7 823 361.8C868.7 370 914.3 373 937.2 374.5L960 376L960 541L937.2 541C914.3 541 868.7 541 823 541C777.3 541 731.7 541 686 541C640.3 541 594.7 541 548.8 541C503 541 457 541 411.2 541C365.3 541 319.7 541 274 541C228.3 541 182.7 541 137 541C91.3 541 45.7 541 22.8 541L0 541Z" fill="#9dc0e6"></path><path d="M0 392L22.8 381.2C45.7 370.3 91.3 348.7 137 336.3C182.7 324 228.3 321 274 319.3C319.7 317.7 365.3 317.3 411.2 330.7C457 344 503 371 548.8 384.7C594.7 398.3 640.3 398.7 686 388.2C731.7 377.7 777.3 356.3 823 349.8C868.7 343.3 914.3 351.7 937.2 355.8L960 360L960 541L937.2 541C914.3 541 868.7 541 823 541C777.3 541 731.7 541 686 541C640.3 541 594.7 541 548.8 541C503 541 457 541 411.2 541C365.3 541 319.7 541 274 541C228.3 541 182.7 541 137 541C91.3 541 45.7 541 22.8 541L0 541Z" fill="#83afe1"></path><path d="M0 418L22.8 422.2C45.7 426.3 91.3 434.7 137 430.7C182.7 426.7 228.3 410.3 274 400.5C319.7 390.7 365.3 387.3 411.2 388.5C457 389.7 503 395.3 548.8 396.3C594.7 397.3 640.3 393.7 686 396.2C731.7 398.7 777.3 407.3 823 406.2C868.7 405 914.3 394 937.2 388.5L960 383L960 541L937.2 541C914.3 541 868.7 541 823 541C777.3 541 731.7 541 686 541C640.3 541 594.7 541 548.8 541C503 541 457 541 411.2 541C365.3 541 319.7 541 274 541C228.3 541 182.7 541 137 541C91.3 541 45.7 541 22.8 541L0 541Z" fill="#699edc"></path><path d="M0 415L22.8 424C45.7 433 91.3 451 137 452.2C182.7 453.3 228.3 437.7 274 438.8C319.7 440 365.3 458 411.2 466.7C457 475.3 503 474.7 548.8 471C594.7 467.3 640.3 460.7 686 454.7C731.7 448.7 777.3 443.3 823 443.5C868.7 443.7 914.3 449.3 937.2 452.2L960 455L960 541L937.2 541C914.3 541 868.7 541 823 541C777.3 541 731.7 541 686 541C640.3 541 594.7 541 548.8 541C503 541 457 541 411.2 541C365.3 541 319.7 541 274 541C228.3 541 182.7 541 137 541C91.3 541 45.7 541 22.8 541L0 541Z" fill="#4d8dd7"></path><path d="M0 493L22.8 487.5C45.7 482 91.3 471 137 468.5C182.7 466 228.3 472 274 474.3C319.7 476.7 365.3 475.3 411.2 475.8C457 476.3 503 478.7 548.8 480.8C594.7 483 640.3 485 686 487C731.7 489 777.3 491 823 491.3C868.7 491.7 914.3 490.3 937.2 489.7L960 489L960 541L937.2 541C914.3 541 868.7 541 823 541C777.3 541 731.7 541 686 541C640.3 541 594.7 541 548.8 541C503 541 457 541 411.2 541C365.3 541 319.7 541 274 541C228.3 541 182.7 541 137 541C91.3 541 45.7 541 22.8 541L0 541Z" fill="#2c7cd1"></path></svg>