<svg id="visual" viewBox="0 0 900 450" width="900" height="450" xmlns="http://www.w3.org/2000/svg" xmlns:xlink="http://www.w3.org/1999/xlink" version="1.1"><rect x="0" y="0" width="900" height="450" fill="#ffffff"></rect><defs><linearGradient id="grad1_0" x1="50%" y1="0%" x2="100%" y2="100%"><stop offset="10%" stop-color="#ffffff" stop-opacity="1"></stop><stop offset="90%" stop-color="#ffffff" stop-opacity="1"></stop></linearGradient></defs><defs><linearGradient id="grad2_0" x1="0%" y1="0%" x2="50%" y2="100%"><stop offset="10%" stop-color="#ffffff" stop-opacity="1"></stop><stop offset="90%" stop-color="#ffffff" stop-opacity="1"></stop></linearGradient></defs><g transform="translate(900, 0)"><path d="M0 405C-53.9 392.2 -107.8 379.4 -145 350.2C-182.3 320.9 -202.8 275.2 -243.2 243.2C-283.7 211.3 -343.9 193.2 -374.2 155C-404.4 116.7 -404.7 58.4 -405 0L0 0Z" fill="#2C7CD1"></path></g><g transform="translate(0, 450)"><path d="M0 -405C54.4 -401.5 108.7 -397.9 155 -374.2C201.3 -350.4 239.4 -306.5 262.3 -262.3C285.2 -218.2 292.9 -173.9 314.1 -130.1C335.4 -86.4 370.2 -43.2 405 0L0 0Z" fill="#2C7CD1"></path></g></svg>