<svg id="visual" viewBox="0 0 960 540" width="960" height="540" xmlns="http://www.w3.org/2000/svg" xmlns:xlink="http://www.w3.org/1999/xlink" version="1.1"><rect x="0" y="0" width="960" height="540" fill="#002233"></rect><path d="M0 369L22.8 368.2C45.7 367.3 91.3 365.7 137 370.5C182.7 375.3 228.3 386.7 274 398.8C319.7 411 365.3 424 411.2 419.8C457 415.7 503 394.3 548.8 384C594.7 373.7 640.3 374.3 686 385C731.7 395.7 777.3 416.3 823 420.7C868.7 425 914.3 413 937.2 407L960 401L960 541L937.2 541C914.3 541 868.7 541 823 541C777.3 541 731.7 541 686 541C640.3 541 594.7 541 548.8 541C503 541 457 541 411.2 541C365.3 541 319.7 541 274 541C228.3 541 182.7 541 137 541C91.3 541 45.7 541 22.8 541L0 541Z" fill="#2C7CD1" stroke-linecap="round" stroke-linejoin="miter"></path></svg>