<svg id="visual" viewBox="0 0 900 450" width="900" height="450" xmlns="http://www.w3.org/2000/svg" xmlns:xlink="http://www.w3.org/1999/xlink" version="1.1"><rect x="0" y="0" width="900" height="450" fill="#ffffff"></rect><path d="M0 281L21.5 290.3C43 299.7 86 318.3 128.8 314.2C171.7 310 214.3 283 257.2 272C300 261 343 266 385.8 275.2C428.7 284.3 471.3 297.7 514.2 305C557 312.3 600 313.7 642.8 305.5C685.7 297.3 728.3 279.7 771.2 275.7C814 271.7 857 281.3 878.5 286.2L900 291L900 451L878.5 451C857 451 814 451 771.2 451C728.3 451 685.7 451 642.8 451C600 451 557 451 514.2 451C471.3 451 428.7 451 385.8 451C343 451 300 451 257.2 451C214.3 451 171.7 451 128.8 451C86 451 43 451 21.5 451L0 451Z" fill="#7cb2ed"></path><path d="M0 353L21.5 349C43 345 86 337 128.8 339.7C171.7 342.3 214.3 355.7 257.2 359.8C300 364 343 359 385.8 358.8C428.7 358.7 471.3 363.3 514.2 359.3C557 355.3 600 342.7 642.8 337C685.7 331.3 728.3 332.7 771.2 335.2C814 337.7 857 341.3 878.5 343.2L900 345L900 451L878.5 451C857 451 814 451 771.2 451C728.3 451 685.7 451 642.8 451C600 451 557 451 514.2 451C471.3 451 428.7 451 385.8 451C343 451 300 451 257.2 451C214.3 451 171.7 451 128.8 451C86 451 43 451 21.5 451L0 451Z" fill="#6aa4e6"></path><path d="M0 367L21.5 360.3C43 353.7 86 340.3 128.8 343.7C171.7 347 214.3 367 257.2 373.5C300 380 343 373 385.8 368C428.7 363 471.3 360 514.2 360.3C557 360.7 600 364.3 642.8 364C685.7 363.7 728.3 359.3 771.2 353.8C814 348.3 857 341.7 878.5 338.3L900 335L900 451L878.5 451C857 451 814 451 771.2 451C728.3 451 685.7 451 642.8 451C600 451 557 451 514.2 451C471.3 451 428.7 451 385.8 451C343 451 300 451 257.2 451C214.3 451 171.7 451 128.8 451C86 451 43 451 21.5 451L0 451Z" fill="#5797df"></path><path d="M0 380L21.5 380.5C43 381 86 382 128.8 384.3C171.7 386.7 214.3 390.3 257.2 393C300 395.7 343 397.3 385.8 398.8C428.7 400.3 471.3 401.7 514.2 402.8C557 404 600 405 642.8 407.2C685.7 409.3 728.3 412.7 771.2 403.7C814 394.7 857 373.3 878.5 362.7L900 352L900 451L878.5 451C857 451 814 451 771.2 451C728.3 451 685.7 451 642.8 451C600 451 557 451 514.2 451C471.3 451 428.7 451 385.8 451C343 451 300 451 257.2 451C214.3 451 171.7 451 128.8 451C86 451 43 451 21.5 451L0 451Z" fill="#4389d8"></path><path d="M0 396L21.5 401.7C43 407.3 86 418.7 128.8 421.3C171.7 424 214.3 418 257.2 419.2C300 420.3 343 428.7 385.8 428.3C428.7 428 471.3 419 514.2 410.7C557 402.3 600 394.7 642.8 395.5C685.7 396.3 728.3 405.7 771.2 407C814 408.3 857 401.7 878.5 398.3L900 395L900 451L878.5 451C857 451 814 451 771.2 451C728.3 451 685.7 451 642.8 451C600 451 557 451 514.2 451C471.3 451 428.7 451 385.8 451C343 451 300 451 257.2 451C214.3 451 171.7 451 128.8 451C86 451 43 451 21.5 451L0 451Z" fill="#2c7cd1"></path></svg>